# xmcd
#
# Track frame offsets:
#	150
#	21911
#	46756
#	76801
#	115362
#	122993
#	144312
#	169905
#	184927
#	204233
#	214946
#	238386
#	250347
#	261095
#	267177
#	303665
#
# Disc length: 4223 seconds
#
# Revision: 0
# Processed by: cddbd v1.5.1PL2 Copyright (c) Steve Scherf et al.
# Submitted via: EasyCDDAExtractor 9.0.0.1
#
DISCID=eb107d10
DTITLE=Howard Wales and Friends (Jerry Garcia) - Boston Symphony Hall 1-26-197
DTITLE=2 [CD1]
DYEAR=1972
DGENRE=Blues
TTITLE0=Southside Strut
TTITLE1=Up From The Desert
TTITLE2=One AM Approach
TTITLE3=Carry Me Back
TTITLE4=Bass Solo
TTITLE5=Get Funky Brother
TTITLE6=A Trip To What Next
TTITLE7=Would You Leave Me?
TTITLE8=Wales Boogie Get Down Mama
TTITLE9=DCS82
TTITLE10=Drums
TTITLE11=DCS82
TTITLE12=Sweet Little Angel
TTITLE13=Sweet Cocaine
TTITLE14=Shine On Love
TTITLE15=Jam
EXTD=
EXTT0=
EXTT1=
EXTT2=
EXTT3=
EXTT4=
EXTT5=
EXTT6=
EXTT7=
EXTT8=
EXTT9=
EXTT10=
EXTT11=
EXTT12=
EXTT13=
EXTT14=
EXTT15=
PLAYORDER=
